<svg width="166" height="94" viewBox="0 0 166 94" fill="none" xmlns="http://www.w3.org/2000/svg">
<mask id="mask0_1_783" style="mask-type:alpha" maskUnits="userSpaceOnUse" x="35" y="21" width="96" height="52">
<path d="M35.0902 46.9724C35.0902 60.8204 56.5402 72.0474 83.0142 72.0474C109.488 72.0474 130.948 60.8204 130.948 46.9714C130.948 33.1224 109.488 21.8954 83.0142 21.8954C56.5402 21.8954 35.0902 33.1244 35.0902 46.9724Z" fill="white"/>
</mask>
<g mask="url(#mask0_1_783)">
<path d="M35.0902 46.9724C35.0902 60.8204 56.5402 72.0474 83.0142 72.0474C109.488 72.0474 130.948 60.8204 130.948 46.9714C130.948 33.1224 109.488 21.8954 83.0142 21.8954C56.5402 21.8954 35.0902 33.1244 35.0902 46.9724Z" fill="url(#paint0_radial_1_783)"/>
</g>
<mask id="mask1_1_783" style="mask-type:alpha" maskUnits="userSpaceOnUse" x="33" y="19" width="100" height="56">
<path d="M33.0832 19.0413H132.943V74.9033H33.0832V19.0413Z" fill="white"/>
</mask>
<g mask="url(#mask1_1_783)">
<path d="M83.0132 70.1863C108.451 70.1863 129.073 59.7933 129.073 46.9723C129.073 34.1513 108.453 23.7583 83.0132 23.7583C57.5732 23.7583 36.9532 34.1533 36.9532 46.9733C36.9532 59.7933 57.5752 70.1863 83.0132 70.1863Z" fill="#777BB3"/>
</g>
<mask id="mask2_1_783" style="mask-type:alpha" maskUnits="userSpaceOnUse" x="33" y="19" width="100" height="56">
<path d="M33.0832 19.0413H132.943V74.9033H33.0832V19.0413Z" fill="white"/>
</mask>
<g mask="url(#mask2_1_783)">
<path d="M61.1232 49.8503C63.2152 49.8503 64.7762 49.4663 65.7632 48.7103C66.7402 47.9623 67.4162 46.6653 67.7692 44.8563C68.0992 43.1663 67.9732 41.9863 67.3962 41.3483C66.8062 40.6983 65.5282 40.3683 63.6002 40.3683H60.2572L58.4042 49.8513H61.1212L61.1232 49.8503ZM50.1902 61.5303C50.1136 61.5304 50.038 61.5136 49.9687 61.4811C49.8994 61.4486 49.8381 61.4012 49.7892 61.3423C49.6892 61.2223 49.6492 61.0663 49.6792 60.9143L54.5892 35.7843C54.6128 35.6662 54.6767 35.56 54.7699 35.4838C54.8631 35.4075 54.9798 35.366 55.1002 35.3663H65.6852C69.0122 35.3663 71.4882 36.2643 73.0452 38.0363C74.6102 39.8163 75.0932 42.3063 74.4812 45.4363C74.2473 46.6697 73.8175 47.8577 73.2082 48.9553C72.6122 50.0153 71.8242 50.9983 70.8662 51.8753C69.7192 52.9433 68.4212 53.7173 67.0112 54.1723C65.6242 54.6223 63.8412 54.8493 61.7152 54.8493H57.4292L56.2052 61.1113C56.1818 61.2293 56.1182 61.3357 56.0252 61.4121C55.9322 61.4885 55.8156 61.5303 55.6952 61.5303H50.1902Z" fill="black"/>
<path d="M60.6882 40.8834H63.6022C65.9292 40.8834 66.7372 41.3914 67.0022 41.6834C67.4582 42.1854 67.5442 43.2454 67.2522 44.7464C66.9222 46.4264 66.3122 47.6194 65.4392 48.2884C64.5442 48.9734 63.0892 49.3204 61.1152 49.3204H59.0292L60.6792 40.8724L60.6882 40.8834ZM65.6862 34.8494H55.1012C54.8605 34.8491 54.6271 34.9324 54.4409 35.0851C54.2547 35.2377 54.1272 35.4502 54.0802 35.6864L49.1702 60.8164C49.1409 60.9661 49.1453 61.1205 49.183 61.2684C49.2207 61.4163 49.2908 61.5539 49.3882 61.6714C49.4861 61.7893 49.6088 61.8842 49.7476 61.9492C49.8865 62.0142 50.0379 62.0477 50.1912 62.0474H55.6962C55.937 62.0476 56.1704 61.9643 56.3566 61.8116C56.5428 61.659 56.6702 61.4465 56.7172 61.2104L57.8592 55.3664H61.7162C63.8962 55.3664 65.7342 55.1294 67.1742 54.6634C68.6542 54.1854 70.0172 53.3634 71.2242 52.2534C72.2212 51.3414 73.0442 50.3164 73.6642 49.2094C74.2842 48.1024 74.7342 46.8654 74.9942 45.5364C75.6382 42.2424 75.1142 39.6064 73.4392 37.6964C71.7792 35.8064 69.1722 34.8494 65.6892 34.8494H65.6862ZM57.7762 50.3664H61.1242C63.3442 50.3664 64.9962 49.9504 66.0842 49.1194C67.1722 48.2884 67.9042 46.8994 68.2842 44.9544C68.6482 43.0864 68.4822 41.7684 67.7862 41.0014C67.0902 40.2344 65.6962 39.8494 63.6042 39.8494H59.8342L57.7792 50.3664H57.7762ZM65.6862 35.8834C68.8702 35.8834 71.1932 36.7134 72.6532 38.3764C74.1132 40.0394 74.5532 42.3584 73.9702 45.3364C73.7302 46.5634 73.3252 47.6864 72.7542 48.7014C72.1832 49.7164 71.4362 50.6484 70.5142 51.5014C69.4142 52.5244 68.1942 53.2534 66.8502 53.6874C65.5062 54.1214 63.7952 54.3394 61.7152 54.3394H57.0002L55.6932 61.0034H50.1882L55.0982 35.8734H65.6832L65.6862 35.8834Z" fill="white"/>
<path d="M87.1032 54.8503C87.0266 54.8505 86.951 54.8337 86.8817 54.8012C86.8124 54.7687 86.7511 54.7213 86.7022 54.6623C86.6022 54.5423 86.5622 54.3863 86.5922 54.2343L88.7652 43.1143C88.9722 42.0573 88.9212 41.2983 88.6222 40.9773C88.4392 40.7813 87.8892 40.4523 86.2622 40.4523H82.3262L79.5962 54.4303C79.5728 54.5486 79.509 54.655 79.4158 54.7314C79.3226 54.8079 79.2057 54.8495 79.0852 54.8493H73.6252C73.5486 54.8495 73.473 54.8327 73.4037 54.8002C73.3344 54.7677 73.2731 54.7203 73.2242 54.6613C73.1242 54.5413 73.0842 54.3853 73.1142 54.2333L78.0242 29.1033C78.0478 28.9853 78.1117 28.8791 78.2049 28.8028C78.2981 28.7266 78.4148 28.6851 78.5352 28.6853H83.9952C84.0718 28.6852 84.1474 28.702 84.2167 28.7345C84.286 28.767 84.3473 28.8144 84.3962 28.8733C84.4962 28.9933 84.5362 29.1493 84.5062 29.3013L83.3212 35.3663H87.5552C90.7812 35.3663 92.9682 35.9323 94.2422 37.0963C95.5422 38.2833 95.9462 40.1813 95.4462 42.7363L93.1612 54.4303C93.1378 54.5486 93.074 54.655 92.9808 54.7314C92.8876 54.8079 92.7707 54.8495 92.6502 54.8493H87.1032V54.8503Z" fill="black"/>
<path d="M83.9952 28.1694H78.5352C78.2944 28.1692 78.0611 28.2525 77.8749 28.4051C77.6887 28.5578 77.5612 28.7703 77.5142 29.0064L72.6042 54.1364C72.5749 54.2862 72.5793 54.4406 72.617 54.5885C72.6547 54.7363 72.7248 54.874 72.8222 54.9914C72.9201 55.1094 73.0428 55.2043 73.1816 55.2693C73.3204 55.3343 73.4719 55.3678 73.6252 55.3674H79.0832C79.324 55.3677 79.5574 55.2844 79.7435 55.1317C79.9297 54.9791 80.0572 54.7666 80.1042 54.5304L82.7542 40.9704H86.2612C87.8842 40.9704 88.2252 41.3154 88.2392 41.3304C88.3372 41.4354 88.4672 41.9234 88.2532 43.0164L86.0802 54.1364C86.0509 54.2862 86.0553 54.4406 86.093 54.5885C86.1307 54.7363 86.2008 54.874 86.2982 54.9914C86.3961 55.1094 86.5188 55.2043 86.6576 55.2693C86.7964 55.3343 86.9479 55.3678 87.1012 55.3674H92.6492C92.89 55.3677 93.1234 55.2844 93.3095 55.1317C93.4957 54.9791 93.6232 54.7666 93.6702 54.5304L95.9552 42.8364C96.4912 40.0914 96.0322 38.0324 94.5922 36.7164C93.2182 35.4614 90.9152 34.8504 87.5522 34.8504H83.9532L85.0182 29.4004C85.0475 29.2507 85.0431 29.0963 85.0054 28.9484C84.9677 28.8005 84.8976 28.6629 84.8002 28.5454C84.6022 28.3074 84.3082 28.1684 83.9972 28.1684L83.9952 28.1694ZM83.9972 29.2024L82.6912 35.8824H87.5562C90.6162 35.8824 92.7292 36.4124 93.8912 37.4754C95.0532 38.5384 95.3912 40.2584 94.9372 42.6374L92.6502 54.3334H87.1032L89.2762 43.2134C89.5232 41.9484 89.4322 41.0854 89.0032 40.6254C88.5742 40.1654 87.6602 39.9254 86.2632 39.9254H81.8982L79.0832 54.3334H73.6232L78.5332 29.2034H83.9932" fill="white"/>
<path d="M104.087 49.8505C106.179 49.8505 107.74 49.4665 108.727 48.7105C109.704 47.9625 110.38 46.6655 110.734 44.8565C111.064 43.1665 110.938 41.9865 110.36 41.3485C109.77 40.6985 108.492 40.3685 106.564 40.3685H103.223L101.37 49.8515H104.087V49.8505ZM93.1532 61.5315C93.0767 61.5316 93.001 61.5148 92.9317 61.4823C92.8624 61.4498 92.8011 61.4024 92.7522 61.3435C92.6522 61.2235 92.6122 61.0675 92.6422 60.9155L97.5522 35.7855C97.5758 35.6674 97.6397 35.5612 97.7329 35.485C97.8261 35.4087 97.9428 35.3672 98.0632 35.3675H108.648C111.975 35.3675 114.451 36.2655 116.008 38.0375C117.573 39.8175 118.056 42.3075 117.444 45.4375C117.194 46.7125 116.767 47.8975 116.171 48.9575C115.575 50.0175 114.787 51.0005 113.829 51.8775C112.682 52.9455 111.384 53.7195 109.974 54.1745C108.587 54.6245 106.804 54.8515 104.678 54.8515H100.393L99.1702 61.1135C99.1468 61.2317 99.083 61.3381 98.9898 61.4146C98.8966 61.491 98.7798 61.5327 98.6592 61.5325H93.1532V61.5315Z" fill="black"/>
<path d="M103.653 40.8834H106.567C108.894 40.8834 109.702 41.3914 109.967 41.6834C110.423 42.1854 110.509 43.2454 110.217 44.7464C109.887 46.4264 109.277 47.6194 108.404 48.2884C107.509 48.9734 106.054 49.3204 104.08 49.3204H101.994L103.644 40.8724L103.653 40.8834ZM108.651 34.8494H98.0652C97.8244 34.8491 97.5911 34.9324 97.4049 35.0851C97.2187 35.2377 97.0912 35.4502 97.0442 35.6864L92.1342 60.8164C92.1049 60.9661 92.1093 61.1205 92.147 61.2684C92.1847 61.4163 92.2548 61.5539 92.3522 61.6714C92.4501 61.7893 92.5728 61.8842 92.7116 61.9492C92.8504 62.0142 93.0019 62.0477 93.1552 62.0474H98.6602C98.901 62.0476 99.1344 61.9643 99.3205 61.8116C99.5067 61.659 99.6342 61.4465 99.6812 61.2104L100.823 55.3664H104.68C106.86 55.3664 108.698 55.1294 110.138 54.6634C111.618 54.1854 112.981 53.3634 114.188 52.2534C115.159 51.3749 115.983 50.3473 116.629 49.2094C117.252 48.1014 117.699 46.8654 117.959 45.5364C118.603 42.2424 118.079 39.6044 116.404 37.6964C114.744 35.8064 112.137 34.8494 108.654 34.8494H108.651ZM100.741 50.3664H104.089C106.309 50.3664 107.961 49.9504 109.049 49.1194C110.137 48.2884 110.869 46.8994 111.249 44.9544C111.613 43.0864 111.449 41.7684 110.751 41.0014C110.053 40.2344 108.661 39.8494 106.569 39.8494H102.799L100.744 50.3664H100.741ZM108.651 35.8834C111.835 35.8834 114.158 36.7134 115.618 38.3764C117.078 40.0394 117.518 42.3584 116.935 45.3364C116.695 46.5634 116.29 47.6864 115.719 48.7014C115.148 49.7164 114.401 50.6484 113.479 51.5014C112.379 52.5244 111.159 53.2534 109.815 53.6874C108.471 54.1214 106.76 54.3394 104.68 54.3394H99.9632L98.6582 61.0194H93.1532L98.0632 35.8894H108.648L108.651 35.8834Z" fill="white"/>
</g>
<defs>
<radialGradient id="paint0_radial_1_783" cx="0" cy="0" r="1" gradientUnits="userSpaceOnUse" gradientTransform="translate(50.2398 30.7113) scale(62.9376 62.9442)">
<stop stop-color="#AEB2D5"/>
<stop offset="0.3" stop-color="#AEB2D5"/>
<stop offset="0.75" stop-color="#484C89"/>
<stop offset="1" stop-color="#484C89"/>
</radialGradient>
</defs>
</svg>
