<svg width="58" height="58" viewBox="0 0 58 58" fill="none" xmlns="http://www.w3.org/2000/svg">
<g clip-path="url(#clip0_1_422)">
<path d="M25.2052 19.6754C24.9476 19.6627 24.6914 19.7183 24.4622 19.8362H24.0155L24.2339 19.9818C24.0914 20.0924 23.9699 20.2289 23.8763 20.3847C23.7396 20.6121 23.6672 20.8723 23.6667 21.1376V21.1385V36.8613V36.8623C23.6672 37.1275 23.7396 37.3877 23.8763 37.6151L24.3048 37.3575L23.8763 37.6151C24.0129 37.8425 24.2087 38.0285 24.4427 38.1534C24.6767 38.2784 24.9403 38.3375 25.2052 38.3245L25.1807 37.8251L25.2052 38.3245C25.4702 38.3114 25.7267 38.2268 25.9473 38.0796L37.7378 30.2209C37.939 30.087 38.1039 29.9055 38.218 29.6925C38.3322 29.4795 38.3919 29.2416 38.3919 28.9999C38.3919 28.7583 38.3322 28.5203 38.218 28.3073C38.1039 28.0943 37.939 27.9128 37.7378 27.7789L27.3194 20.8362H27.3202L25.9473 19.9202C25.7267 19.773 25.4702 19.6884 25.2052 19.6754ZM29 52.6666C15.9289 52.6666 5.33334 42.071 5.33334 28.9999C5.33334 15.9288 15.9289 5.33325 29 5.33325C42.0711 5.33325 52.6667 15.9288 52.6667 28.9999C52.6667 42.071 42.0711 52.6666 29 52.6666Z" fill="#0067DC" stroke="white"/>
</g>
<defs>
<clipPath id="clip0_1_422">
<rect width="58" height="58" fill="white"/>
</clipPath>
</defs>
</svg>
