<svg width="23" height="23" viewBox="0 0 23 23" fill="none" xmlns="http://www.w3.org/2000/svg">
<path d="M18.2083 10.5416H6.8425L10.3213 6.36329C10.4839 6.16758 10.5622 5.91527 10.5388 5.66186C10.5154 5.40845 10.3924 5.1747 10.1967 5.01204C10.001 4.84937 9.74865 4.77111 9.49524 4.79447C9.24183 4.81784 9.00808 4.94091 8.84542 5.13662L4.05375 10.8866C4.02151 10.9324 3.99268 10.9804 3.9675 11.0304C3.9675 11.0783 3.9675 11.107 3.90042 11.155C3.85698 11.2648 3.83424 11.3818 3.83333 11.5C3.83424 11.6181 3.85698 11.7351 3.90042 11.845C3.90042 11.8929 3.90042 11.9216 3.9675 11.9695C3.99268 12.0195 4.02151 12.0676 4.05375 12.1133L8.84542 17.8633C8.93552 17.9715 9.04836 18.0585 9.17589 18.1181C9.30343 18.1777 9.44254 18.2085 9.58333 18.2083C9.80725 18.2087 10.0243 18.1307 10.1967 17.9879C10.2937 17.9074 10.3739 17.8086 10.4327 17.6971C10.4915 17.5856 10.5277 17.4636 10.5393 17.3381C10.5509 17.2126 10.5376 17.086 10.5002 16.9656C10.4627 16.8453 10.4019 16.7335 10.3213 16.6366L6.8425 12.4583H18.2083C18.4625 12.4583 18.7063 12.3573 18.886 12.1776C19.0657 11.9979 19.1667 11.7541 19.1667 11.5C19.1667 11.2458 19.0657 11.002 18.886 10.8223C18.7063 10.6426 18.4625 10.5416 18.2083 10.5416Z" fill="#0067DC"/>
</svg>
