<svg width="64" height="411" viewBox="0 0 64 411" fill="none" xmlns="http://www.w3.org/2000/svg">
<g filter="url(#filter0_d_165_350)">
<rect width="63.5774" height="58.5364" rx="5" fill="white"/>
</g>
<g filter="url(#filter1_d_165_350)">
<rect x="-1.52605e-05" y="352.464" width="63.5774" height="58.5364" rx="5" fill="white"/>
</g>
<line x1="32.9651" y1="57.2907" x2="32.9651" y2="352.463" stroke="#928B8B" stroke-opacity="0.6"/>
<path d="M20.0202 368.208L22.6404 367.542C23.5052 367.323 24.4351 367.376 25.2567 367.692C26.0783 368.008 26.7355 368.565 27.1057 369.26L28.9427 372.705C29.2615 373.302 29.3504 373.969 29.1968 374.611C29.0432 375.254 28.6549 375.84 28.0864 376.286L25.2904 378.483C24.9157 378.783 25.1997 379.952 26.5687 381.953C27.939 383.955 28.9981 384.746 29.4865 384.623L33.1496 383.679C33.8921 383.487 34.6871 383.496 35.4231 383.705C36.1591 383.914 36.7992 384.311 37.2537 384.842L39.8645 387.893C40.3918 388.509 40.636 389.266 40.5516 390.023C40.4673 390.779 40.0602 391.484 39.4059 392.006L37.3876 393.618C36.7361 394.138 35.9326 394.504 35.059 394.677C34.1854 394.849 33.2731 394.824 32.4151 394.603C28.1865 393.511 24.2704 390.272 20.614 384.93C16.9495 379.58 15.5657 375.068 16.5302 371.382C16.7247 370.639 17.1507 369.953 17.7641 369.395C18.3776 368.838 19.1564 368.428 20.0202 368.208Z" fill="black"/>
<path d="M18.7446 17.1453V41.3431H34.3974V17.1453H18.7446ZM17.4402 14.9456H35.7018C36.0477 14.9456 36.3795 15.0614 36.6241 15.2677C36.8688 15.474 37.0062 15.7537 37.0062 16.0454V42.443C37.0062 42.7347 36.8688 43.0145 36.6241 43.2207C36.3795 43.427 36.0477 43.5429 35.7018 43.5429H17.4402C17.0942 43.5429 16.7624 43.427 16.5178 43.2207C16.2732 43.0145 16.1358 42.7347 16.1358 42.443V16.0454C16.1358 15.7537 16.2732 15.474 16.5178 15.2677C16.7624 15.0614 17.0942 14.9456 17.4402 14.9456Z" fill="#0067DC"/>
<path d="M21.3535 21.5449H31.7887V23.7447H21.3535V21.5449ZM21.3535 28.1443H31.7887V30.3441H21.3535V28.1443ZM21.3535 34.7437H31.7887V36.9435H21.3535V34.7437ZM37.0063 30.3441H42.2239V32.5439H37.0063V30.3441ZM37.0063 34.7437H42.2239V36.9435H37.0063V34.7437ZM13.5271 41.3431H50.0503V43.5429H13.5271V41.3431Z" fill="#0067DC"/>
<path d="M37.0062 25.9442V41.3427H44.8326V25.9442H37.0062ZM35.7018 23.7444H46.137C46.4829 23.7444 46.8147 23.8603 47.0593 24.0666C47.304 24.2728 47.4414 24.5526 47.4414 24.8443V42.4426C47.4414 42.7343 47.304 43.0141 47.0593 43.2204C46.8147 43.4266 46.4829 43.5425 46.137 43.5425H35.7018C35.3558 43.5425 35.024 43.4266 34.7794 43.2204C34.5348 43.0141 34.3974 42.7343 34.3974 42.4426V24.8443C34.3974 24.5526 34.5348 24.2728 34.7794 24.0666C35.024 23.8603 35.3558 23.7444 35.7018 23.7444Z" fill="#0067DC"/>
<defs>
<filter id="filter0_d_165_350" x="-4.00046" y="0" width="71.5784" height="66.5374" filterUnits="userSpaceOnUse" color-interpolation-filters="sRGB">
<feFlood flood-opacity="0" result="BackgroundImageFix"/>
<feColorMatrix in="SourceAlpha" type="matrix" values="0 0 0 0 0 0 0 0 0 0 0 0 0 0 0 0 0 0 127 0" result="hardAlpha"/>
<feOffset dy="4"/>
<feGaussianBlur stdDeviation="2"/>
<feComposite in2="hardAlpha" operator="out"/>
<feColorMatrix type="matrix" values="0 0 0 0 0 0 0 0 0 0 0 0 0 0 0 0 0 0 0.25 0"/>
<feBlend mode="normal" in2="BackgroundImageFix" result="effect1_dropShadow_165_350"/>
<feBlend mode="normal" in="SourceGraphic" in2="effect1_dropShadow_165_350" result="shape"/>
</filter>
<filter id="filter1_d_165_350" x="-4.00047" y="352.464" width="71.5783" height="66.5374" filterUnits="userSpaceOnUse" color-interpolation-filters="sRGB">
<feFlood flood-opacity="0" result="BackgroundImageFix"/>
<feColorMatrix in="SourceAlpha" type="matrix" values="0 0 0 0 0 0 0 0 0 0 0 0 0 0 0 0 0 0 127 0" result="hardAlpha"/>
<feOffset dy="4"/>
<feGaussianBlur stdDeviation="2"/>
<feComposite in2="hardAlpha" operator="out"/>
<feColorMatrix type="matrix" values="0 0 0 0 0 0 0 0 0 0 0 0 0 0 0 0 0 0 0.25 0"/>
<feBlend mode="normal" in2="BackgroundImageFix" result="effect1_dropShadow_165_350"/>
<feBlend mode="normal" in="SourceGraphic" in2="effect1_dropShadow_165_350" result="shape"/>
</filter>
</defs>
</svg>
