<svg width="57" height="56" viewBox="0 0 57 56" fill="none" xmlns="http://www.w3.org/2000/svg">
<path opacity="0.1" d="M10.731 0C6.37362 3.88302 3.15884 8.88181 1.43328 14.4574C-0.292281 20.033 -0.463158 25.9738 0.939078 31.6393C2.34131 37.3049 5.26346 42.4802 9.39045 46.6073C13.5174 50.7343 18.6927 53.6566 24.3582 55.0589C30.0238 56.4612 35.9647 56.2904 41.5404 54.5649C47.1161 52.8393 52.115 49.6245 55.9981 45.2671L10.731 0Z" fill="white"/>
<path d="M8.30634 28.3045C8.11932 28.3074 7.93371 28.2715 7.76126 28.1991C7.5888 28.1267 7.43325 28.0193 7.30442 27.8836C7.17205 27.7529 7.06744 27.5967 6.99686 27.4246C6.92627 27.2524 6.89116 27.0678 6.89363 26.8817C6.89229 26.6958 6.92792 26.5115 6.99844 26.3395C7.06896 26.1675 7.17297 26.0112 7.30442 25.8798C7.43198 25.7419 7.58707 25.6323 7.75966 25.5581C7.93225 25.4838 8.11849 25.4467 8.30634 25.449C8.49392 25.4485 8.67961 25.4865 8.85193 25.5606C9.02426 25.6347 9.17957 25.7433 9.30827 25.8798C9.44199 26.0101 9.54814 26.1659 9.62043 26.338C9.69272 26.5101 9.72967 26.695 9.72908 26.8817C9.73083 27.0686 9.69441 27.2538 9.62205 27.4261C9.54969 27.5984 9.44292 27.7541 9.30827 27.8836C9.17835 28.0178 9.02258 28.1243 8.85038 28.1966C8.67818 28.2689 8.49311 28.3056 8.30634 28.3045ZM28.2146 28.054H25.5896L16.2015 13.486C15.9677 13.127 15.7729 12.7441 15.6204 12.3438H15.5403C15.6295 13.1755 15.6629 14.0123 15.6404 14.8486V28.054H13.5164V9.78884H16.2917L25.4293 24.0964L26.1707 25.3187H26.2208C26.1151 24.4278 26.0716 23.5305 26.0905 22.6335V9.78884H28.2246V28.054H28.2146ZM42.6724 28.054H32.9537V9.78884H42.2115V11.7226H35.1379V17.7942H41.7306V19.7179H35.1379V26.0501H42.6724V28.054ZM57 11.7226H51.6898V28.054H49.5557V11.7226H44.3056V9.78884H57V11.7226Z" fill="white"/>
</svg>
