<svg width="166" height="94" viewBox="0 0 166 94" fill="none" xmlns="http://www.w3.org/2000/svg">
<path d="M75.076 60.637C75.076 60.637 79.926 60.217 79.926 53.903C79.926 47.589 74.05 47 74.05 47H63.466V66.923H68.786V62.117L73.386 66.923H81.256L75.076 60.636V60.637ZM73.026 56.557H68.786V52.002H73.053C73.053 52.002 74.253 52.449 74.253 54.265C74.253 56.081 73.033 56.565 73.033 56.565L73.026 56.557ZM93.06 47.14H87.657C83.807 47.14 82.503 50.66 82.503 52.337V66.923H87.906V63.43H92.976V66.923H98.213V52.338C98.213 48.091 94.389 47.141 93.059 47.141L93.06 47.14ZM92.977 57.786H87.879V52.952C87.879 52.952 87.879 51.852 89.579 51.852H91.435C92.931 51.852 92.959 52.952 92.959 52.952V57.786H92.987H92.977ZM100.68 47.14H106.305V66.924H100.68V47.14ZM114.2 61.8V47.14H108.603V66.924H121.763V61.8H114.2ZM123.62 61.856V66.914H132.68C134.536 66.914 137.723 65.544 137.834 61.717V59.77C137.834 56.5 135.174 54.573 132.68 54.573H128.164V52.226H137.114V47.14H128.514C126.297 47.14 123.334 48.984 123.334 52.42V54.18C123.334 57.617 126.271 59.377 128.514 59.377C134.748 59.405 127.018 59.377 132.781 59.377V61.837L123.611 61.865L123.62 61.856ZM29.94 66.886H51.84C51.84 66.886 47.656 47.633 61.51 39.836C64.53 38.356 74.145 32.822 89.883 44.558C90.383 44.138 90.853 43.804 90.853 43.804C90.853 43.804 76.453 29.302 60.41 30.924C52.347 31.651 42.428 39.054 36.61 48.824C30.792 58.594 29.96 66.874 29.96 66.874L29.94 66.886ZM75.547 32.5L75.647 30.628C75.397 30.488 74.705 30.153 72.959 29.65L72.859 31.494C73.7656 31.8002 74.6621 32.1357 75.547 32.5ZM72.915 38.424L72.815 40.184C73.729 40.212 74.645 40.324 75.558 40.519L75.658 38.787C74.716 38.591 73.802 38.48 72.915 38.424ZM62.663 29.706H62.94L62.385 28C61.525 28 60.639 28.056 59.725 28.168L60.251 29.818C61.0518 29.7388 61.8563 29.7014 62.661 29.706H62.663ZM63.993 39.989L64.63 41.917C65.434 41.517 66.237 41.19 67.03 40.939L66.43 39.095C65.5989 39.3402 64.7846 39.6388 63.992 39.989H63.993ZM51.413 32.639L50.166 30.699C49.4345 31.0793 48.7139 31.4801 48.005 31.901L49.28 33.857C50 33.41 50.693 32.991 51.414 32.627L51.413 32.639ZM57.093 45.213L58.423 47.225C58.893 46.525 59.448 45.885 60.058 45.241L58.811 43.341C58.1878 43.9166 57.6132 44.5428 57.093 45.213ZM53.076 54.2L55.32 56C55.4319 54.897 55.6265 53.8039 55.902 52.73L53.907 51.137C53.547 52.171 53.307 53.205 53.077 54.211L53.076 54.2ZM40.94 40.938L38.973 39.206C38.253 39.906 37.56 40.603 36.923 41.302L39.057 43.146C39.639 42.392 40.277 41.646 40.941 40.939L40.94 40.938ZM32.572 53.438L29.386 52.264C28.86 53.466 28.278 54.864 28.001 55.617L31.187 56.791C31.547 55.841 32.129 54.471 32.572 53.438ZM52.66 61.318C52.6981 62.4971 52.8089 63.6726 52.992 64.838L56.317 66.04C56.067 64.94 55.817 63.72 55.652 62.407L52.66 61.307V61.318Z" fill="#CC0000"/>
</svg>
