<svg width="24" height="9" viewBox="0 0 24 9" fill="none" xmlns="http://www.w3.org/2000/svg">
<path d="M6.30487 8.20234C5.57942 8.55368 4.77921 8.72269 3.97365 8.69471C3.43836 8.71882 2.9041 8.62819 2.40671 8.42889C1.90932 8.22959 1.4603 7.92623 1.08977 7.53915C0.351446 6.71268 -0.0375738 5.63208 0.00454624 4.52465C-0.022482 3.92503 0.0712134 3.3261 0.280072 2.76339C0.488931 2.20068 0.808697 1.68566 1.2204 1.24888C1.62161 0.837865 2.10396 0.514833 2.63677 0.300323C3.16959 0.0858131 3.74121 -0.0154781 4.31529 0.00289035C5.00232 -0.0205882 5.68673 0.0991806 6.32496 0.354581V1.35942C5.71047 1.01923 5.01757 0.846002 4.31529 0.856998C3.87254 0.844528 3.43233 0.927859 3.02477 1.10129C2.61721 1.27472 2.25193 1.53415 1.95393 1.86183C1.32726 2.57576 1.00293 3.5055 1.04958 4.45431C1.00265 5.3531 1.3051 6.23523 1.89364 6.91615C2.17594 7.21971 2.52057 7.45861 2.90389 7.61644C3.2872 7.77428 3.70013 7.84732 4.11432 7.83055C4.88585 7.85075 5.64778 7.65592 6.31491 7.26785L6.30487 8.20234ZM10.4046 8.70476C10.0046 8.71771 9.60649 8.64456 9.23723 8.49027C8.86796 8.33597 8.53616 8.10414 8.26429 7.81046C7.71483 7.19727 7.42955 6.39201 7.47047 5.56967C7.44538 5.13885 7.50619 4.70734 7.64937 4.30023C7.79255 3.89312 8.01524 3.51853 8.30448 3.19826C8.59968 2.91016 8.95086 2.68572 9.33629 2.5388C9.72172 2.39189 10.1332 2.32564 10.5453 2.34415C10.9348 2.32341 11.3241 2.38722 11.6866 2.53118C12.0492 2.67514 12.3762 2.89586 12.6454 3.17817C13.1794 3.82179 13.4488 4.64438 13.399 5.47924C13.4412 6.32652 13.1489 7.15648 12.5851 7.79036C12.3081 8.08975 11.9701 8.32627 11.594 8.48401C11.2179 8.64174 10.8123 8.71702 10.4046 8.70476ZM10.4749 3.20831C10.1985 3.19668 9.92305 3.24756 9.66904 3.35716C9.41503 3.46677 9.18903 3.63228 9.00787 3.84136C8.62122 4.33922 8.42841 4.96048 8.46525 5.58977C8.43016 6.20034 8.62359 6.80212 9.00787 7.27789C9.19091 7.48402 9.41751 7.64685 9.67124 7.7546C9.92498 7.86235 10.1995 7.91232 10.4749 7.90089C10.7446 7.9168 11.0143 7.87074 11.2634 7.76623C11.5125 7.66172 11.7343 7.50155 11.9118 7.29799C12.2772 6.7988 12.455 6.18691 12.4143 5.56967C12.454 4.94943 12.2763 4.33473 11.9118 3.83131C11.7367 3.6235 11.5159 3.4591 11.2666 3.35101C11.0173 3.24292 10.7463 3.19407 10.4749 3.20831ZM18.1117 3.50976C17.8946 3.36758 17.637 3.30051 17.3781 3.31884C17.1757 3.32621 16.9782 3.38321 16.803 3.48484C16.6278 3.58647 16.4802 3.7296 16.3733 3.90165C16.0742 4.37515 15.9302 4.93011 15.9613 5.48929V8.56408H14.9565V2.53507H15.9613V3.78107C16.0718 3.39242 16.2915 3.04366 16.5944 2.77623C16.8564 2.5488 17.1919 2.42388 17.5389 2.42454C17.7332 2.41581 17.9273 2.44306 18.1117 2.50493V3.50976ZM23.99 5.79074H19.7496C19.721 6.35246 19.9039 6.90452 20.262 7.33818C20.4483 7.52395 20.6716 7.6683 20.9175 7.76181C21.1634 7.85531 21.4263 7.89586 21.6889 7.8808C22.3701 7.874 23.0288 7.63669 23.5579 7.20755V8.1119C22.9366 8.5214 22.2009 8.72204 21.4578 8.68466C21.0828 8.70358 20.7083 8.63955 20.3609 8.49713C20.0135 8.3547 19.7019 8.13739 19.4481 7.86069C18.925 7.20819 18.6635 6.38432 18.7146 5.54958C18.6785 4.71278 18.9623 3.89362 19.5084 3.25855C19.7569 2.97146 20.0661 2.7432 20.4137 2.59027C20.7613 2.43734 21.1385 2.36357 21.5181 2.3743C21.8608 2.3551 22.2034 2.41384 22.5202 2.54611C22.8369 2.67838 23.1196 2.88074 23.3469 3.13797C23.8095 3.74807 24.0377 4.50402 23.99 5.26822L24 5.79074H23.99ZM22.9851 4.98687C23.0055 4.52126 22.8634 4.06303 22.5832 3.69063C22.4457 3.53528 22.2748 3.41301 22.0834 3.33297C21.892 3.25293 21.685 3.21719 21.4779 3.22841C21.2616 3.22576 21.0472 3.26817 20.8483 3.35294C20.6493 3.43771 20.4702 3.56298 20.3223 3.72078C19.9916 4.07065 19.7835 4.51852 19.7295 4.99692H22.9851V4.98687Z" fill="#F2F2F2"/>
</svg>
