<svg width="23" height="23" viewBox="0 0 23 23" fill="none" xmlns="http://www.w3.org/2000/svg">
<path d="M4.79167 10.5416H16.1575L12.6787 6.36329C12.5161 6.16758 12.4378 5.91527 12.4612 5.66186C12.4846 5.40845 12.6076 5.1747 12.8033 5.01204C12.999 4.84937 13.2514 4.77111 13.5048 4.79447C13.7582 4.81784 13.9919 4.94091 14.1546 5.13662L18.9462 10.8866C18.9785 10.9324 19.0073 10.9804 19.0325 11.0304C19.0325 11.0783 19.0325 11.107 19.0996 11.155C19.143 11.2648 19.1658 11.3818 19.1667 11.5C19.1658 11.6181 19.143 11.7351 19.0996 11.845C19.0996 11.8929 19.0996 11.9216 19.0325 11.9695C19.0073 12.0195 18.9785 12.0676 18.9462 12.1133L14.1546 17.8633C14.0645 17.9715 13.9516 18.0585 13.8241 18.1181C13.6966 18.1777 13.5575 18.2085 13.4167 18.2083C13.1927 18.2087 12.9757 18.1307 12.8033 17.9879C12.7063 17.9074 12.6261 17.8086 12.5673 17.6971C12.5085 17.5856 12.4723 17.4636 12.4607 17.3381C12.4491 17.2126 12.4624 17.086 12.4998 16.9656C12.5373 16.8453 12.5981 16.7335 12.6787 16.6366L16.1575 12.4583H4.79167C4.5375 12.4583 4.29374 12.3573 4.11402 12.1776C3.9343 11.9979 3.83333 11.7541 3.83333 11.5C3.83333 11.2458 3.9343 11.002 4.11402 10.8223C4.29374 10.6426 4.5375 10.5416 4.79167 10.5416Z" fill="white"/>
</svg>
